<svg style="position: absolute; width: ; height: 0; overflow: hidden;" version="1.1" xmlns="http://www.w3.org/2000/svg" xmlns:xlink="http://www.w3.org/1999/xlink">
    <defs>
        <!--folder-->
        <symbol id="wptw-icon-folder" viewBox="0 0 24 24" fill="none" stroke="currentColor" stroke-width="2" stroke-linecap="round" stroke-linejoin="round">
            <path d="M22 19a2 2 0 0 1-2 2H4a2 2 0 0 1-2-2V5a2 2 0 0 1 2-2h5l2 3h9a2 2 0 0 1 2 2z"/>
        </symbol>
        <!--hash-->
        <symbol id="wptw-icon-hash" viewBox="0 0 24 24" fill="none" stroke="currentColor" stroke-width="2" stroke-linecap="round" stroke-linejoin="round">
            <line x1="4" y1="9" x2="20" y2="9"/>
            <line x1="4" y1="15" x2="20" y2="15"/>
            <line x1="10" y1="3" x2="8" y2="21"/>
            <line x1="16" y1="3" x2="14" y2="21"/>
        </symbol>
        <!--arrow-down-->
        <symbol id="wptw-icon-arrow-down" viewBox="0 0 24 24" fill="none" stroke="currentColor" stroke-width="2" stroke-linecap="round" stroke-linejoin="round">
            <line x1="12" y1="5" x2="12" y2="19"/>
            <polyline points="19 12 12 19 5 12"/>
        </symbol>
        <!--arrow-left-->
        <symbol id="wptw-icon-arrow-left" viewBox="0 0 24 24" fill="none" stroke="currentColor" stroke-width="2" stroke-linecap="round" stroke-linejoin="round">
            <line x1="19" y1="12" x2="5" y2="12"/>
            <polyline points="12 19 5 12 12 5"/>
        </symbol>
        <!--arrow-right-->
        <symbol id="wptw-icon-arrow-right" viewBox="0 0 24 24" fill="none" stroke="currentColor" stroke-width="2" stroke-linecap="round" stroke-linejoin="round">
            <line x1="5" y1="12" x2="19" y2="12"/>
            <polyline points="12 5 19 12 12 19"/>
        </symbol>
        <!--arrow-up-->
        <symbol id="wptw-icon-arrow-up" viewBox="0 0 24 24" fill="none" stroke="currentColor" stroke-width="2" stroke-linecap="round" stroke-linejoin="round">
            <line x1="12" y1="19" x2="12" y2="5"/>
            <polyline points="5 12 12 5 19 12"/>
        </symbol>
        <!--bookmark-->
        <symbol id="wptw-icon-bookmark" viewBox="0 0 24 24" fill="none" stroke="currentColor" stroke-width="2" stroke-linecap="round" stroke-linejoin="round">
            <path d="M19 21l-7-5-7 5V5a2 2 0 0 1 2-2h10a2 2 0 0 1 2 2z"/>
        </symbol>
        <!--calendar-->
        <symbol id="wptw-icon-calendar" viewBox="0 0 24 24" fill="none" stroke="currentColor" stroke-width="2" stroke-linecap="round" stroke-linejoin="round">
            <rect x="3" y="4" width="18" height="18" rx="2" ry="2"/>
            <line x1="16" y1="2" x2="16" y2="6"/>
            <line x1="8" y1="2" x2="8" y2="6"/>
            <line x1="3" y1="10" x2="21" y2="10"/>
        </symbol>
        <!--chevron-down-->
        <symbol id="wptw-icon-chevron-down" viewBox="0 0 24 24" fill="none" stroke="currentColor" stroke-width="2" stroke-linecap="round" stroke-linejoin="round">
            <polyline points="6 9 12 15 18 9"/>
        </symbol>
        <!--chevron-left-->
        <symbol id="wptw-icon-chevron-left" viewBox="0 0 24 24" fill="none" stroke="currentColor" stroke-width="2" stroke-linecap="round" stroke-linejoin="round">
            <polyline points="15 18 9 12 15 6"/>
        </symbol>
        <!--chevron-right-->
        <symbol id="wptw-icon-chevron-right" viewBox="0 0 24 24" fill="none" stroke="currentColor" stroke-width="2" stroke-linecap="round" stroke-linejoin="round">
            <polyline points="9 18 15 12 9 6"/>
        </symbol>
        <!--chevron-up-->
        <symbol id="wptw-icon-chevron-up" viewBox="0 0 24 24" fill="none" stroke="currentColor" stroke-width="2" stroke-linecap="round" stroke-linejoin="round">
            <polyline points="18 15 12 9 6 15"/>
        </symbol>
        <!--clock-->
        <symbol id="wptw-icon-clock" viewBox="0 0 24 24" fill="none" stroke="currentColor" stroke-width="2" stroke-linecap="round" stroke-linejoin="round">
            <circle cx="12" cy="12" r="10"/>
            <polyline points="12 6 12 12 16 14"/>
        </symbol>
        <!--corner-down-right-->
        <symbol id="wptw-icon-corner-down-right" viewBox="0 0 24 24" fill="none" stroke="currentColor" stroke-width="2" stroke-linecap="round" stroke-linejoin="round">
            <polyline points="15 10 20 15 15 20"/>
            <path d="M4 4v7a4 4 0 0 0 4 4h12"/>
        </symbol>
        <!--edit-->
        <symbol id="wptw-icon-edit" viewBox="0 0 24 24" fill="none" stroke="currentColor" stroke-width="2" stroke-linecap="round" stroke-linejoin="round">
            <path d="M20 14.66V20a2 2 0 0 1-2 2H4a2 2 0 0 1-2-2V6a2 2 0 0 1 2-2h5.34"/>
            <polygon points="18 2 22 6 12 16 8 16 8 12 18 2"/>
        </symbol>
        <!--pencil-->
        <symbol id="wptw-icon-pencil" viewBox="0 0 24 24" fill="none" stroke="currentColor" stroke-width="2" stroke-linecap="round" stroke-linejoin="round">
            <polygon points="16 3 21 8 8 21 3 21 3 16 16 3"/>
        </symbol>
        <!--external-link-->
        <symbol id="wptw-icon-external-link" viewBox="0 0 24 24" fill="none" stroke="currentColor" stroke-width="2" stroke-linecap="round" stroke-linejoin="round">
            <path d="M18 13v6a2 2 0 0 1-2 2H5a2 2 0 0 1-2-2V8a2 2 0 0 1 2-2h6"/>
            <polyline points="15 3 21 3 21 9"/>
            <line x1="10" y1="14" x2="21" y2="3"/>
        </symbol>
        <!--heart-->
        <symbol id="wptw-icon-heart" viewBox="0 0 24 24" fill="none" stroke="currentColor" stroke-width="2" stroke-linecap="round" stroke-linejoin="round">
            <path d="M20.84 4.61a5.5 5.5 0 0 0-7.78 0L12 5.67l-1.06-1.06a5.5 5.5 0 0 0-7.78 7.78l1.06 1.06L12 21.23l7.78-7.78 1.06-1.06a5.5 5.5 0 0 0 0-7.78z"/>
        </symbol>
        <!--home-->
        <symbol id="wptw-icon-home" viewBox="0 0 24 24" fill="none" stroke="currentColor" stroke-width="2" stroke-linecap="round" stroke-linejoin="round">
            <path d="M3 9l9-7 9 7v11a2 2 0 0 1-2 2H5a2 2 0 0 1-2-2z"/>
            <polyline points="9 22 9 12 15 12 15 22"/>
        </symbol>
        <!--loader-->
        <symbol id="wptw-icon-loader" viewBox="0 0 24 24" fill="none" stroke="currentColor" stroke-width="2" stroke-linecap="round" stroke-linejoin="round">
            <line x1="12" y1="2" x2="12" y2="6"/>
            <line x1="12" y1="18" x2="12" y2="22"/>
            <line x1="4.93" y1="4.93" x2="7.76" y2="7.76"/>
            <line x1="16.24" y1="16.24" x2="19.07" y2="19.07"/>
            <line x1="2" y1="12" x2="6" y2="12"/>
            <line x1="18" y1="12" x2="22" y2="12"/>
            <line x1="4.93" y1="19.07" x2="7.76" y2="16.24"/>
            <line x1="16.24" y1="7.76" x2="19.07" y2="4.93"/>
        </symbol>
        <!--link-->
        <symbol id="wptw-icon-link" viewBox="0 0 24 24" fill="none" stroke="currentColor" stroke-width="2" stroke-linecap="round" stroke-linejoin="round">
            <path d="M15 7h3a5 5 0 0 1 5 5 5 5 0 0 1-5 5h-3m-6 0H6a5 5 0 0 1-5-5 5 5 0 0 1 5-5h3"/>
            <line x1="8" y1="12" x2="16" y2="12"/>
        </symbol>
        <!--mail-->
        <symbol id="wptw-icon-mail" viewBox="0 0 24 24" fill="none" stroke="currentColor" stroke-width="2" stroke-linecap="round" stroke-linejoin="round">
            <path d="M4 4h16c1.1 0 2 .9 2 2v12c0 1.1-.9 2-2 2H4c-1.1 0-2-.9-2-2V6c0-1.1.9-2 2-2z"/>
            <polyline points="22,6 12,13 2,6"/>
        </symbol>
        <!--map-pin-->
        <symbol id="wptw-icon-map-pin" viewBox="0 0 24 24" fill="none" stroke="currentColor" stroke-width="2" stroke-linecap="round" stroke-linejoin="round">
            <path d="M21 10c0 7-9 13-9 13s-9-6-9-13a9 9 0 0 1 18 0z"/>
            <circle cx="12" cy="10" r="3"/>
        </symbol>
        <!--menu-->
        <symbol id="wptw-icon-menu" viewBox="0 0 24 24" fill="none" stroke="currentColor" stroke-width="2" stroke-linecap="round" stroke-linejoin="round">
            <line x1="3" y1="12" x2="21" y2="12"/>
            <line x1="3" y1="6" x2="21" y2="6"/>
            <line x1="3" y1="18" x2="21" y2="18"/>
        </symbol>
        <!--message-circle-->
        <symbol id="wptw-icon-message-circle" viewBox="0 0 24 24" fill="none" stroke="currentColor" stroke-width="2" stroke-linecap="round" stroke-linejoin="round">
            <path d="M21 11.5a8.38 8.38 0 0 1-.9 3.8 8.5 8.5 0 0 1-7.6 4.7 8.38 8.38 0 0 1-3.8-.9L3 21l1.9-5.7a8.38 8.38 0 0 1-.9-3.8 8.5 8.5 0 0 1 4.7-7.6 8.38 8.38 0 0 1 3.8-.9h.5a8.48 8.48 0 0 1 8 8v.5z"/>
        </symbol>
        <!--message-square-->
        <symbol id="wptw-icon-message-square" viewBox="0 0 24 24" fill="none" stroke="currentColor" stroke-width="2" stroke-linecap="round" stroke-linejoin="round">
            <path d="M21 15a2 2 0 0 1-2 2H7l-4 4V5a2 2 0 0 1 2-2h14a2 2 0 0 1 2 2z"/>
        </symbol>
        <!--phone-->
        <symbol id="wptw-icon-phone" viewBox="0 0 24 24" fill="none" stroke="currentColor" stroke-width="2" stroke-linecap="round" stroke-linejoin="round">
            <path d="M22 16.92v3a2 2 0 0 1-2.18 2 19.79 19.79 0 0 1-8.63-3.07 19.5 19.5 0 0 1-6-6 19.79 19.79 0 0 1-3.07-8.67A2 2 0 0 1 4.11 2h3a2 2 0 0 1 2 1.72 12.84 12.84 0 0 0 .7 2.81 2 2 0 0 1-.45 2.11L8.09 9.91a16 16 0 0 0 6 6l1.27-1.27a2 2 0 0 1 2.11-.45 12.84 12.84 0 0 0 2.81.7A2 2 0 0 1 22 16.92z"/>
        </symbol>
        <!--search-->
        <symbol id="wptw-icon-search" viewBox="0 0 24 24" fill="none" stroke="currentColor" stroke-width="2" stroke-linecap="round" stroke-linejoin="round">
            <circle cx="11" cy="11" r="8"/>
            <line x1="21" y1="21" x2="16.65" y2="16.65"/>
        </symbol>
        <!--tag-->
        <symbol id="wptw-icon-tag" viewBox="0 0 24 24" fill="none" stroke="currentColor" stroke-width="2" stroke-linecap="round" stroke-linejoin="round">
            <path d="M20.59 13.41l-7.17 7.17a2 2 0 0 1-2.83 0L2 12V2h10l8.59 8.59a2 2 0 0 1 0 2.82z"/>
            <line x1="7" y1="7" x2="7" y2="7"/>
        </symbol>
        <!--user-->
        <symbol id="wptw-icon-user" viewBox="0 0 24 24" fill="none" stroke="currentColor" stroke-width="2" stroke-linecap="round" stroke-linejoin="round">
            <path d="M20 21v-2a4 4 0 0 0-4-4H8a4 4 0 0 0-4 4v2"/>
            <circle cx="12" cy="7" r="4"/>
        </symbol>
    </defs>
</svg>